<svg id="visual" viewBox="0 0 900 600" width="900" height="600" xmlns="http://www.w3.org/2000/svg" xmlns:xlink="http://www.w3.org/1999/xlink" version="1.1"><rect x="0" y="0" width="900" height="600" fill="#001220"></rect><defs><linearGradient id="grad1_0" x1="33.3%" y1="0%" x2="100%" y2="100%"><stop offset="20%" stop-color="#ff9900" stop-opacity="1"></stop><stop offset="80%" stop-color="#ff9900" stop-opacity="1"></stop></linearGradient></defs><defs><linearGradient id="grad1_1" x1="33.3%" y1="0%" x2="100%" y2="100%"><stop offset="20%" stop-color="#ff9900" stop-opacity="1"></stop><stop offset="80%" stop-color="#f05c4b" stop-opacity="1"></stop></linearGradient></defs><defs><linearGradient id="grad1_2" x1="33.3%" y1="0%" x2="100%" y2="100%"><stop offset="20%" stop-color="#bb3c69" stop-opacity="1"></stop><stop offset="80%" stop-color="#f05c4b" stop-opacity="1"></stop></linearGradient></defs><defs><linearGradient id="grad1_3" x1="33.3%" y1="0%" x2="100%" y2="100%"><stop offset="20%" stop-color="#bb3c69" stop-opacity="1"></stop><stop offset="80%" stop-color="#70346b" stop-opacity="1"></stop></linearGradient></defs><defs><linearGradient id="grad1_4" x1="33.3%" y1="0%" x2="100%" y2="100%"><stop offset="20%" stop-color="#29294e" stop-opacity="1"></stop><stop offset="80%" stop-color="#70346b" stop-opacity="1"></stop></linearGradient></defs><defs><linearGradient id="grad1_5" x1="33.3%" y1="0%" x2="100%" y2="100%"><stop offset="20%" stop-color="#29294e" stop-opacity="1"></stop><stop offset="80%" stop-color="#001220" stop-opacity="1"></stop></linearGradient></defs><defs><linearGradient id="grad2_0" x1="0%" y1="0%" x2="66.7%" y2="100%"><stop offset="20%" stop-color="#ff9900" stop-opacity="1"></stop><stop offset="80%" stop-color="#ff9900" stop-opacity="1"></stop></linearGradient></defs><defs><linearGradient id="grad2_1" x1="0%" y1="0%" x2="66.7%" y2="100%"><stop offset="20%" stop-color="#f05c4b" stop-opacity="1"></stop><stop offset="80%" stop-color="#ff9900" stop-opacity="1"></stop></linearGradient></defs><defs><linearGradient id="grad2_2" x1="0%" y1="0%" x2="66.7%" y2="100%"><stop offset="20%" stop-color="#f05c4b" stop-opacity="1"></stop><stop offset="80%" stop-color="#bb3c69" stop-opacity="1"></stop></linearGradient></defs><defs><linearGradient id="grad2_3" x1="0%" y1="0%" x2="66.7%" y2="100%"><stop offset="20%" stop-color="#70346b" stop-opacity="1"></stop><stop offset="80%" stop-color="#bb3c69" stop-opacity="1"></stop></linearGradient></defs><defs><linearGradient id="grad2_4" x1="0%" y1="0%" x2="66.7%" y2="100%"><stop offset="20%" stop-color="#70346b" stop-opacity="1"></stop><stop offset="80%" stop-color="#29294e" stop-opacity="1"></stop></linearGradient></defs><defs><linearGradient id="grad2_5" x1="0%" y1="0%" x2="66.7%" y2="100%"><stop offset="20%" stop-color="#001220" stop-opacity="1"></stop><stop offset="80%" stop-color="#29294e" stop-opacity="1"></stop></linearGradient></defs><g transform="translate(900, 0)"><path d="M0 486.7C-42.6 455.3 -85.2 423.8 -134.1 412.8C-183 401.7 -238.3 411 -286.1 393.8C-333.9 376.6 -374.1 332.8 -391.6 284.5C-409 236.1 -403.6 183.2 -415.6 135C-427.7 86.9 -457.2 43.4 -486.7 0L0 0Z" fill="#0f1f38"></path><path d="M0 405.6C-35.5 379.4 -71 353.2 -111.8 344C-152.5 334.7 -198.6 342.5 -238.4 328.2C-278.2 313.8 -311.8 277.4 -326.3 237.1C-340.8 196.8 -336.3 152.7 -346.3 112.5C-356.4 72.4 -381 36.2 -405.6 0L0 0Z" fill="#4a3060"></path><path d="M0 324.5C-28.4 303.5 -56.8 282.6 -89.4 275.2C-122 267.8 -158.9 274 -190.7 262.5C-222.6 251 -249.4 221.9 -261 189.7C-272.7 157.4 -269 122.1 -277.1 90C-285.1 57.9 -304.8 29 -324.5 0L0 0Z" fill="#96376e"></path><path d="M0 243.4C-21.3 227.6 -42.6 211.9 -67.1 206.4C-91.5 200.8 -119.2 205.5 -143.1 196.9C-166.9 188.3 -187.1 166.4 -195.8 142.2C-204.5 118.1 -201.8 91.6 -207.8 67.5C-213.8 43.4 -228.6 21.7 -243.4 0L0 0Z" fill="#d9485d"></path><path d="M0 162.2C-14.2 151.8 -28.4 141.3 -44.7 137.6C-61 133.9 -79.4 137 -95.4 131.3C-111.3 125.5 -124.7 110.9 -130.5 94.8C-136.3 78.7 -134.5 61.1 -138.5 45C-142.6 29 -152.4 14.5 -162.2 0L0 0Z" fill="#fd7932"></path><path d="M0 81.1C-7.1 75.9 -14.2 70.6 -22.4 68.8C-30.5 66.9 -39.7 68.5 -47.7 65.6C-55.6 62.8 -62.4 55.5 -65.3 47.4C-68.2 39.4 -67.3 30.5 -69.3 22.5C-71.3 14.5 -76.2 7.2 -81.1 0L0 0Z" fill="#ff9900"></path></g><g transform="translate(0, 600)"><path d="M0 -486.7C41 -443.1 82 -399.5 122.7 -377.6C163.4 -355.6 203.7 -355.4 251.6 -346.3C299.4 -337.2 354.7 -319.2 392.4 -285.1C430.1 -250.9 450.1 -200.6 462.9 -150.4C475.7 -100.2 481.2 -50.1 486.7 0L0 0Z" fill="#0f1f38"></path><path d="M0 -405.6C34.2 -369.3 68.3 -332.9 102.2 -314.6C136.1 -296.4 169.8 -296.1 209.6 -288.5C249.5 -281 295.6 -266 327 -237.6C358.4 -209.1 375.1 -167.2 385.8 -125.3C396.4 -83.5 401 -41.8 405.6 0L0 0Z" fill="#4a3060"></path><path d="M0 -324.5C27.3 -295.4 54.7 -266.3 81.8 -251.7C108.9 -237.1 135.8 -236.9 167.7 -230.8C199.6 -224.8 236.5 -212.8 261.6 -190.1C286.7 -167.3 300.1 -133.7 308.6 -100.3C317.1 -66.8 320.8 -33.4 324.5 0L0 0Z" fill="#96376e"></path><path d="M0 -243.4C20.5 -221.6 41 -199.8 61.3 -188.8C81.7 -177.8 101.9 -177.7 125.8 -173.1C149.7 -168.6 177.3 -159.6 196.2 -142.5C215 -125.5 225.1 -100.3 231.5 -75.2C237.9 -50.1 240.6 -25.1 243.4 0L0 0Z" fill="#d9485d"></path><path d="M0 -162.2C13.7 -147.7 27.3 -133.2 40.9 -125.9C54.5 -118.5 67.9 -118.5 83.9 -115.4C99.8 -112.4 118.2 -106.4 130.8 -95C143.4 -83.6 150 -66.9 154.3 -50.1C158.6 -33.4 160.4 -16.7 162.2 0L0 0Z" fill="#fd7932"></path><path d="M0 -81.1C6.8 -73.9 13.7 -66.6 20.4 -62.9C27.2 -59.3 34 -59.2 41.9 -57.7C49.9 -56.2 59.1 -53.2 65.4 -47.5C71.7 -41.8 75 -33.4 77.2 -25.1C79.3 -16.7 80.2 -8.4 81.1 0L0 0Z" fill="#ff9900"></path></g></svg>