<svg id="visual" viewBox="0 0 900 600" width="900" height="600" xmlns="http://www.w3.org/2000/svg" xmlns:xlink="http://www.w3.org/1999/xlink" version="1.1"><path d="M0 73L13.7 75C27.3 77 54.7 81 82 89C109.3 97 136.7 109 163.8 106C191 103 218 85 245.2 73C272.3 61 299.7 55 327 69C354.3 83 381.7 117 409 126C436.3 135 463.7 119 491 109C518.3 99 545.7 95 573 89C600.3 83 627.7 75 654.8 74C682 73 709 79 736.2 81C763.3 83 790.7 81 818 88C845.3 95 872.7 111 886.3 119L900 127L900 0L886.3 0C872.7 0 845.3 0 818 0C790.7 0 763.3 0 736.2 0C709 0 682 0 654.8 0C627.7 0 600.3 0 573 0C545.7 0 518.3 0 491 0C463.7 0 436.3 0 409 0C381.7 0 354.3 0 327 0C299.7 0 272.3 0 245.2 0C218 0 191 0 163.8 0C136.7 0 109.3 0 82 0C54.7 0 27.3 0 13.7 0L0 0Z" fill="#d5e4f8"></path><path d="M0 217L13.7 218C27.3 219 54.7 221 82 235C109.3 249 136.7 275 163.8 283C191 291 218 281 245.2 284C272.3 287 299.7 303 327 307C354.3 311 381.7 303 409 281C436.3 259 463.7 223 491 217C518.3 211 545.7 235 573 243C600.3 251 627.7 243 654.8 234C682 225 709 215 736.2 211C763.3 207 790.7 209 818 218C845.3 227 872.7 243 886.3 251L900 259L900 125L886.3 117C872.7 109 845.3 93 818 86C790.7 79 763.3 81 736.2 79C709 77 682 71 654.8 72C627.7 73 600.3 81 573 87C545.7 93 518.3 97 491 107C463.7 117 436.3 133 409 124C381.7 115 354.3 81 327 67C299.7 53 272.3 59 245.2 71C218 83 191 101 163.8 104C136.7 107 109.3 95 82 87C54.7 79 27.3 75 13.7 73L0 71Z" fill="#cedff6"></path><path d="M0 307L13.7 304C27.3 301 54.7 295 82 305C109.3 315 136.7 341 163.8 352C191 363 218 359 245.2 357C272.3 355 299.7 355 327 352C354.3 349 381.7 343 409 329C436.3 315 463.7 293 491 293C518.3 293 545.7 315 573 321C600.3 327 627.7 317 654.8 309C682 301 709 295 736.2 292C763.3 289 790.7 289 818 299C845.3 309 872.7 329 886.3 339L900 349L900 257L886.3 249C872.7 241 845.3 225 818 216C790.7 207 763.3 205 736.2 209C709 213 682 223 654.8 232C627.7 241 600.3 249 573 241C545.7 233 518.3 209 491 215C463.7 221 436.3 257 409 279C381.7 301 354.3 309 327 305C299.7 301 272.3 285 245.2 282C218 279 191 289 163.8 281C136.7 273 109.3 247 82 233C54.7 219 27.3 217 13.7 216L0 215Z" fill="#c7daf5"></path><path d="M0 379L13.7 377C27.3 375 54.7 371 82 377C109.3 383 136.7 399 163.8 405C191 411 218 407 245.2 409C272.3 411 299.7 419 327 413C354.3 407 381.7 387 409 372C436.3 357 463.7 347 491 349C518.3 351 545.7 365 573 369C600.3 373 627.7 367 654.8 360C682 353 709 345 736.2 339C763.3 333 790.7 329 818 343C845.3 357 872.7 389 886.3 405L900 421L900 347L886.3 337C872.7 327 845.3 307 818 297C790.7 287 763.3 287 736.2 290C709 293 682 299 654.8 307C627.7 315 600.3 325 573 319C545.7 313 518.3 291 491 291C463.7 291 436.3 313 409 327C381.7 341 354.3 347 327 350C299.7 353 272.3 353 245.2 355C218 357 191 361 163.8 350C136.7 339 109.3 313 82 303C54.7 293 27.3 299 13.7 302L0 305Z" fill="#bed4f3"></path><path d="M0 409L13.7 413C27.3 417 54.7 425 82 439C109.3 453 136.7 473 163.8 477C191 481 218 469 245.2 470C272.3 471 299.7 485 327 481C354.3 477 381.7 455 409 433C436.3 411 463.7 389 491 391C518.3 393 545.7 419 573 425C600.3 431 627.7 417 654.8 411C682 405 709 407 736.2 405C763.3 403 790.7 397 818 412C845.3 427 872.7 463 886.3 481L900 499L900 419L886.3 403C872.7 387 845.3 355 818 341C790.7 327 763.3 331 736.2 337C709 343 682 351 654.8 358C627.7 365 600.3 371 573 367C545.7 363 518.3 349 491 347C463.7 345 436.3 355 409 370C381.7 385 354.3 405 327 411C299.7 417 272.3 409 245.2 407C218 405 191 409 163.8 403C136.7 397 109.3 381 82 375C54.7 369 27.3 373 13.7 375L0 377Z" fill="#b5cdf1"></path><path d="M0 601L13.7 601C27.3 601 54.7 601 82 601C109.3 601 136.7 601 163.8 601C191 601 218 601 245.2 601C272.3 601 299.7 601 327 601C354.3 601 381.7 601 409 601C436.3 601 463.7 601 491 601C518.3 601 545.7 601 573 601C600.3 601 627.7 601 654.8 601C682 601 709 601 736.2 601C763.3 601 790.7 601 818 601C845.3 601 872.7 601 886.3 601L900 601L900 497L886.3 479C872.7 461 845.3 425 818 410C790.7 395 763.3 401 736.2 403C709 405 682 403 654.8 409C627.7 415 600.3 429 573 423C545.7 417 518.3 391 491 389C463.7 387 436.3 409 409 431C381.7 453 354.3 475 327 479C299.7 483 272.3 469 245.2 468C218 467 191 479 163.8 475C136.7 471 109.3 451 82 437C54.7 423 27.3 415 13.7 411L0 407Z" fill="#abc7ef"></path></svg>