<svg id="visual" viewBox="0 0 900 600" width="900" height="600" xmlns="http://www.w3.org/2000/svg" xmlns:xlink="http://www.w3.org/1999/xlink" version="1.1"><rect x="0" y="0" width="900" height="600" fill="#ffffff"></rect><defs><linearGradient id="grad1_0" x1="33.3%" y1="0%" x2="100%" y2="100%"><stop offset="20%" stop-color="#d5b9ff" stop-opacity="1"></stop><stop offset="80%" stop-color="#d5b9ff" stop-opacity="1"></stop></linearGradient></defs><defs><linearGradient id="grad1_1" x1="33.3%" y1="0%" x2="100%" y2="100%"><stop offset="20%" stop-color="#d5b9ff" stop-opacity="1"></stop><stop offset="80%" stop-color="#dec7ff" stop-opacity="1"></stop></linearGradient></defs><defs><linearGradient id="grad1_2" x1="33.3%" y1="0%" x2="100%" y2="100%"><stop offset="20%" stop-color="#e7d5ff" stop-opacity="1"></stop><stop offset="80%" stop-color="#dec7ff" stop-opacity="1"></stop></linearGradient></defs><defs><linearGradient id="grad1_3" x1="33.3%" y1="0%" x2="100%" y2="100%"><stop offset="20%" stop-color="#e7d5ff" stop-opacity="1"></stop><stop offset="80%" stop-color="#efe3ff" stop-opacity="1"></stop></linearGradient></defs><defs><linearGradient id="grad1_4" x1="33.3%" y1="0%" x2="100%" y2="100%"><stop offset="20%" stop-color="#f7f1ff" stop-opacity="1"></stop><stop offset="80%" stop-color="#efe3ff" stop-opacity="1"></stop></linearGradient></defs><defs><linearGradient id="grad1_5" x1="33.3%" y1="0%" x2="100%" y2="100%"><stop offset="20%" stop-color="#f7f1ff" stop-opacity="1"></stop><stop offset="80%" stop-color="#ffffff" stop-opacity="1"></stop></linearGradient></defs><defs><linearGradient id="grad2_0" x1="0%" y1="0%" x2="66.7%" y2="100%"><stop offset="20%" stop-color="#d5b9ff" stop-opacity="1"></stop><stop offset="80%" stop-color="#d5b9ff" stop-opacity="1"></stop></linearGradient></defs><defs><linearGradient id="grad2_1" x1="0%" y1="0%" x2="66.7%" y2="100%"><stop offset="20%" stop-color="#dec7ff" stop-opacity="1"></stop><stop offset="80%" stop-color="#d5b9ff" stop-opacity="1"></stop></linearGradient></defs><defs><linearGradient id="grad2_2" x1="0%" y1="0%" x2="66.7%" y2="100%"><stop offset="20%" stop-color="#dec7ff" stop-opacity="1"></stop><stop offset="80%" stop-color="#e7d5ff" stop-opacity="1"></stop></linearGradient></defs><defs><linearGradient id="grad2_3" x1="0%" y1="0%" x2="66.7%" y2="100%"><stop offset="20%" stop-color="#efe3ff" stop-opacity="1"></stop><stop offset="80%" stop-color="#e7d5ff" stop-opacity="1"></stop></linearGradient></defs><defs><linearGradient id="grad2_4" x1="0%" y1="0%" x2="66.7%" y2="100%"><stop offset="20%" stop-color="#efe3ff" stop-opacity="1"></stop><stop offset="80%" stop-color="#f7f1ff" stop-opacity="1"></stop></linearGradient></defs><defs><linearGradient id="grad2_5" x1="0%" y1="0%" x2="66.7%" y2="100%"><stop offset="20%" stop-color="#ffffff" stop-opacity="1"></stop><stop offset="80%" stop-color="#f7f1ff" stop-opacity="1"></stop></linearGradient></defs><g transform="translate(900, 0)"><path d="M0 486.7C-38.8 472.6 -77.6 458.5 -121.1 452.1C-164.7 445.6 -213.1 446.7 -243.4 421.5C-273.7 396.3 -285.9 344.8 -310.4 310.4C-334.9 276 -371.8 258.8 -399.2 230.5C-426.7 202.2 -444.8 162.9 -457.8 122.7C-470.9 82.4 -478.8 41.2 -486.7 0L0 0Z" fill="#fbf8ff"></path><path d="M0 405.6C-32.3 393.9 -64.6 382.1 -100.9 376.7C-137.3 371.3 -177.6 372.3 -202.8 351.3C-228.1 330.3 -238.2 287.3 -258.7 258.7C-279.1 230 -309.8 215.6 -332.7 192.1C-355.6 168.5 -370.7 135.8 -381.5 102.2C-392.4 68.7 -399 34.3 -405.6 0L0 0Z" fill="#f3eaff"></path><path d="M0 324.5C-25.9 315.1 -51.7 305.7 -80.8 301.4C-109.8 297.1 -142.1 297.8 -162.2 281C-182.4 264.2 -190.6 229.9 -206.9 206.9C-223.3 184 -247.8 172.5 -266.2 153.7C-284.5 134.8 -296.5 108.6 -305.2 81.8C-313.9 55 -319.2 27.5 -324.5 0L0 0Z" fill="#ebdcff"></path><path d="M0 243.4C-19.4 236.3 -38.8 229.3 -60.6 226C-82.4 222.8 -106.5 223.4 -121.7 210.8C-136.8 198.2 -142.9 172.4 -155.2 155.2C-167.5 138 -185.9 129.4 -199.6 115.3C-213.4 101.1 -222.4 81.5 -228.9 61.3C-235.4 41.2 -239.4 20.6 -243.4 0L0 0Z" fill="#e2ceff"></path><path d="M0 162.2C-12.9 157.5 -25.9 152.8 -40.4 150.7C-54.9 148.5 -71 148.9 -81.1 140.5C-91.2 132.1 -95.3 114.9 -103.5 103.5C-111.6 92 -123.9 86.3 -133.1 76.8C-142.2 67.4 -148.3 54.3 -152.6 40.9C-157 27.5 -159.6 13.7 -162.2 0L0 0Z" fill="#dac0ff"></path><path d="M0 81.1C-6.5 78.8 -12.9 76.4 -20.2 75.3C-27.5 74.3 -35.5 74.5 -40.6 70.3C-45.6 66.1 -47.6 57.5 -51.7 51.7C-55.8 46 -62 43.1 -66.5 38.4C-71.1 33.7 -74.1 27.2 -76.3 20.4C-78.5 13.7 -79.8 6.9 -81.1 0L0 0Z" fill="#d5b9ff"></path></g><g transform="translate(0, 600)"><path d="M0 -486.7C45.8 -489.2 91.6 -491.7 126 -470.2C160.3 -448.7 183.3 -403.2 220 -381.1C256.7 -358.9 307.3 -360.1 335.9 -335.9C364.5 -311.7 371.2 -262.1 385.4 -222.5C399.6 -182.9 421.3 -153.2 439.5 -117.8C457.6 -82.3 472.2 -41.2 486.7 0L0 0Z" fill="#fbf8ff"></path><path d="M0 -405.6C38.2 -407.7 76.3 -409.7 105 -391.8C133.6 -373.9 152.7 -336 183.3 -317.5C213.9 -299.1 256.1 -300.1 279.9 -279.9C303.7 -259.7 309.3 -218.4 321.2 -185.4C333 -152.4 351.1 -127.7 366.2 -98.1C381.4 -68.6 393.5 -34.3 405.6 0L0 0Z" fill="#f3eaff"></path><path d="M0 -324.5C30.5 -326.1 61.1 -327.8 84 -313.4C106.9 -299.1 122.2 -268.8 146.7 -254C171.2 -239.3 204.8 -240 223.9 -223.9C243 -207.8 247.4 -174.7 256.9 -148.3C266.4 -121.9 280.9 -102.1 293 -78.5C305.1 -54.9 314.8 -27.4 324.5 0L0 0Z" fill="#ebdcff"></path><path d="M0 -243.4C22.9 -244.6 45.8 -245.8 63 -235.1C80.2 -224.3 91.6 -201.6 110 -190.5C128.4 -179.5 153.6 -180 167.9 -167.9C182.2 -155.8 185.6 -131.1 192.7 -111.3C199.8 -91.4 210.7 -76.6 219.7 -58.9C228.8 -41.2 236.1 -20.6 243.4 0L0 0Z" fill="#e2ceff"></path><path d="M0 -162.2C15.3 -163.1 30.5 -163.9 42 -156.7C53.4 -149.6 61.1 -134.4 73.3 -127C85.6 -119.6 102.4 -120 112 -112C121.5 -103.9 123.7 -87.4 128.5 -74.2C133.2 -61 140.4 -51.1 146.5 -39.3C152.5 -27.4 157.4 -13.7 162.2 0L0 0Z" fill="#dac0ff"></path><path d="M0 -81.1C7.6 -81.5 15.3 -81.9 21 -78.4C26.7 -74.8 30.5 -67.2 36.7 -63.5C42.8 -59.8 51.2 -60 56 -56C60.7 -51.9 61.9 -43.7 64.2 -37.1C66.6 -30.5 70.2 -25.5 73.2 -19.6C76.3 -13.7 78.7 -6.9 81.1 0L0 0Z" fill="#d5b9ff"></path></g></svg>